<?xml version="1.0" encoding="utf-8"?>
<!-- Generator: Adobe Illustrator 27.0.0, SVG Export Plug-In . SVG Version: 6.00 Build 0)  -->
<svg version="1.1" id="Layer_1" xmlns="http://www.w3.org/2000/svg" xmlns:xlink="http://www.w3.org/1999/xlink" x="0px" y="0px"
	 viewBox="0 0 200 136.91" style="enable-background:new 0 0 200 136.91;" xml:space="preserve">
<style type="text/css">
	.st0{fill:#0000FF;}
	.st1{fill:#FF00FF;}
</style>
<path class="st0" d="M4.55,93.65h180.24c0,0,10.53-5.53,9.67-20.21c-0.54-9.24-10.18-16.08-22.44-15.31c0,0,11.47-5.96,10.27-17.62
	c-1.11-10.75-14.09-12.33-14.09-12.33s8.37-14.91-10.09-23.11c-22.32-9.91-40.34,0.39-46.11,13.49c0,0-15.95-13.48-33.25-3.47
	S60.79,45.12,60.79,45.12s16.61-0.28,20.94,18.2c0,0,13.67-13.58,30.25-3.57c0,0-20.19-3.08-31.72,10.78c0,0-4.38-28.07-32.44-20.8
	C24.02,55.9,31.95,79.78,4.55,93.65z"/>
<path class="st1" d="M122.49,97.11c0,0-16.62,29.33-4.32,36.94C130.48,141.66,147.23,121.35,122.49,97.11z"/>
<path class="st1" d="M148.05,48.37c0,0-16.85,20.28-7.69,31.71c6.5,8.11,17.55,1.34,17.91-7.57
	C158.49,67.15,157.66,58.46,148.05,48.37z"/>
</svg>
